<svg width="20" height="20" viewBox="0 0 20 20" fill="none" xmlns="http://www.w3.org/2000/svg">
<path fill-rule="evenodd" clip-rule="evenodd" d="M10 16.6849L7.06124 18.1072L5.72424 15.1286L2.55876 14.3292L3.44914 11.188L1.53813 8.54089L4.23927 6.70698L4.47691 3.45077L7.72492 3.78217L10 1.44052L12.2751 3.78217L15.5231 3.45077L15.7608 6.70698L18.4619 8.54089L16.5509 11.188L17.4413 14.3292L14.2758 15.1286L12.9388 18.1072L10 16.6849Z" fill="#322F2F"/>
<path fill-rule="evenodd" clip-rule="evenodd" d="M11.7409 7.16879L6.96735 12.2512L8.09059 13.3744L12.8642 8.29203L11.7409 7.16879Z" fill="#00FFD1"/>
<path opacity="0.3" fill-rule="evenodd" clip-rule="evenodd" d="M9.04529 7.64618C9.04529 8.43774 8.40461 9.07825 7.61322 9.07825C6.82329 9.07825 6.18115 8.43774 6.18115 7.64618C6.18115 6.85462 6.82329 6.21411 7.61322 6.21411C8.40461 6.21411 9.04529 6.85462 9.04529 7.64618" fill="#00FFD1"/>
<path opacity="0.3" fill-rule="evenodd" clip-rule="evenodd" d="M12.3868 13.8518C11.5969 13.8518 10.9547 13.2113 10.9547 12.4197C10.9547 11.6267 11.5969 10.9876 12.3868 10.9876C13.1782 10.9876 13.8189 11.6267 13.8189 12.4197C13.8189 13.2113 13.1782 13.8518 12.3868 13.8518Z" fill="#00FFD1"/>
</svg>
