<svg width="312" height="186" viewBox="0 0 312 186" fill="none" xmlns="http://www.w3.org/2000/svg">
<mask id="mask0" mask-type="alpha" maskUnits="userSpaceOnUse" x="0" y="0" width="308" height="178">
<rect width="308" height="178" fill="#A5D7A2"/>
</mask>
<g mask="url(#mask0)">
<path d="M476.913 -95.8605C470.423 -127.395 420.108 -163.193 398.089 -177.105C392.295 -177.105 374.912 -189.858 319.286 -179.424C274.786 -171.077 242.028 -109.476 231.212 -79.7186C257.866 -83.1967 319.286 -61.1688 319.286 -60.0094C319.286 -59.0819 303.062 -58.85 294.95 -58.85C256.012 -55.1401 221.555 -30.2523 209.194 -18.2722C187.871 2.13264 173.269 38.9232 168.634 54.7679C215.915 53.8404 243.96 69.8396 252.072 77.9552C246.278 80.274 196.446 83.752 176.746 84.9114C160.985 85.8389 153.955 94.5728 152.41 98.8238C132.013 147.981 146.229 229.059 155.886 263.454C161.449 294.061 186.789 341.904 198.764 362C203.4 357.363 235.462 343.064 250.913 336.494C291.474 308.669 285.755 294.981 286.838 285.482C288.017 275.137 287.611 270.797 289.156 268.091C297.268 270.41 299.586 279.685 327.398 271.569C355.211 263.454 361.006 240.267 373.753 221.717C383.951 206.877 384.955 186.163 384.183 177.661C380.706 163.748 358.688 147.517 356.37 145.198C354.053 142.88 348.258 138.242 352.894 139.402C357.529 140.561 380.706 146.358 402.725 141.72C424.743 137.083 442.126 86.0708 443.285 54.7679C444.444 23.465 415.472 -7.83791 410.837 -12.4754C407.129 -16.1853 408.519 -18.6587 409.678 -19.4316C419.722 -16.7264 442.822 -10.6204 454.874 -7.83791C469.939 -4.3598 478.051 -10.1566 481.528 -19.4316C487.144 -34.414 486.183 -71.4244 476.913 -95.8605Z" fill="#61B379"/>
<path d="M245.119 271.57C249.754 272.729 257.635 277.367 252.072 286.641C245.119 298.235 232.371 276.207 245.119 271.57Z" fill="#A5D7A2"/>
<path d="M417.79 -200.292C417.79 -196.583 282.589 109.645 214.988 262.295C208.499 269.715 209.194 256.884 210.353 249.542C211.512 234.47 392.295 -181.743 401.566 -196.814C410.837 -211.886 417.79 -204.93 417.79 -200.292Z" fill="#A5D7A2"/>
<path d="M443.285 -63.4872C438.65 -85.7471 411.223 -87.4475 398.089 -85.5152C394.613 -78.559 407.36 -76.2402 422.426 -68.1247C434.478 -61.6322 441.354 -62.3279 443.285 -63.4872Z" fill="#A5D7A2"/>
<path d="M287.997 -119.137C278.726 -117.282 281.816 -112.954 284.52 -111.021C292.632 -105.224 320.445 -106.384 326.24 -107.543C332.034 -108.703 333.193 -111.021 332.034 -116.818C330.875 -122.615 299.586 -121.456 287.997 -119.137Z" fill="#A5D7A2"/>
<path d="M363.323 44.3339C346.636 37.8414 353.28 49.3578 358.688 55.9275C364.096 60.9514 378.157 72.3905 391.136 77.9555C404.115 83.5204 401.952 75.6367 399.248 70.9993C394.226 64.816 380.011 50.8263 363.323 44.3339Z" fill="#A5D7A2"/>
<path d="M306.539 189.255C293.559 179.98 294.178 190.028 296.109 196.211C296.109 197.37 300.049 204.095 315.81 221.717C331.57 239.339 329.33 225.195 326.24 215.92C325.081 210.896 319.518 198.53 306.539 189.255Z" fill="#A5D7A2"/>
<path d="M210.353 156.792C225.186 154.01 216.534 147.904 210.353 145.199C184.858 140.561 176.746 150.996 179.063 153.314C181.381 155.633 191.811 160.271 210.353 156.792Z" fill="#A5D7A2"/>
<path d="M232.371 7.23413C219.392 10.0166 226.963 14.5768 232.371 16.5091C249.754 22.3059 272.932 16.5091 270.614 10.7122C268.296 4.91541 248.595 3.75603 232.371 7.23413Z" fill="#A5D7A2"/>
</g>
</svg>
